<svg width="216" height="160" viewBox="0 0 216 160" fill="none" xmlns="http://www.w3.org/2000/svg">
<g clip-path="url(#clip0_205_1524)">
<path d="M103.912 0H1.02051V90.0298H103.912V0Z" fill="#D10014"/>
<path d="M88.6191 77.5282C93.9049 77.0119 97.7649 72.3985 97.2367 67.2207C96.7114 62.043 91.9989 58.264 86.7131 58.7772C81.4273 59.2935 77.5672 63.907 78.0955 69.0847C78.6208 74.2625 83.3333 78.0415 88.6191 77.5282Z" fill="white"/>
<path d="M14.3174 12.8258H45.3389C55.3672 12.8258 62.3039 15.3952 66.7072 19.8045C70.5493 23.4785 72.5183 28.4341 72.5183 34.7675V34.9506C72.5183 44.7748 67.1755 51.2913 59.0231 54.6891L74.6764 77.09H53.6833L40.4673 57.6276H32.501V77.09H14.3174V12.8258ZM44.4954 43.6732C50.6817 43.6732 54.2416 40.7347 54.2416 36.0522V35.8691C54.2416 30.8204 50.4926 28.248 44.4024 28.248H32.498V43.6732H44.4954Z" fill="white"/>
<path d="M0.993408 106.286H11.2949C15.5722 106.286 18.8259 108.487 18.8259 112.491C18.8259 114.991 17.5922 116.828 15.0919 117.702V117.792C16.9589 118.425 17.9224 119.599 18.2256 121.739C18.6758 124.569 18.3756 127.28 19.129 127.553V127.823H13.9483C13.375 127.493 13.465 124.962 13.1349 122.822C12.8647 120.835 11.8412 119.752 9.55096 119.752H6.32724V127.823H0.993408V106.289V106.286ZM10.3314 115.805C12.4385 115.805 13.5251 114.811 13.5251 113.184C13.5251 111.557 12.5015 110.504 10.4514 110.504H6.32424V115.805H10.3284H10.3314Z" fill="#000662"/>
<path d="M19.7266 120.082C19.7266 115.474 22.9503 111.951 27.6478 111.951C29.8479 111.951 31.5949 112.674 32.9186 113.878C34.7555 115.564 35.659 118.245 35.629 121.379H24.5441C24.8443 123.456 25.9909 124.752 28.008 124.752C29.3016 124.752 30.1451 124.179 30.5683 123.215H35.3559C35.0257 124.602 34.1222 125.926 32.7655 126.859C31.4688 127.763 29.905 128.276 27.9479 128.276C22.8572 128.276 19.7266 124.752 19.7266 120.085V120.082ZM30.6614 118.455C30.4813 116.618 29.3347 115.444 27.7408 115.444C25.8738 115.444 24.9103 116.618 24.5771 118.455H30.6614Z" fill="#000662"/>
<path d="M36.9555 112.401H41.653V114.268H41.743C42.7966 112.881 44.3034 111.947 46.4105 111.947C50.5077 111.947 53.005 115.471 53.005 120.109C53.005 125.109 50.3246 128.3 46.2874 128.3C44.3004 128.3 42.8836 127.517 41.9201 126.223H41.8601V132.911H36.9495V112.401H36.9555ZM48.0374 120.292C48.0374 117.642 47.0438 115.895 44.9367 115.895C42.8296 115.895 41.713 117.792 41.713 120.292C41.713 122.792 42.9166 124.509 45.0268 124.509C46.8937 124.509 48.0374 122.912 48.0374 120.292Z" fill="#000662"/>
<path d="M54.2114 122.519V112.401H59.092V121.496C59.092 123.182 59.8454 124.116 61.4123 124.116C63.0991 124.116 64.1227 122.852 64.1227 121.015V112.401H69.0333V127.823H64.3358V125.926H64.2458C63.1322 127.433 61.7754 128.276 59.6383 128.276C56.0844 128.276 54.2174 125.956 54.2174 122.522L54.2114 122.519Z" fill="#000662"/>
<path d="M75.8054 125.863H75.7454V127.82H71.0479V106.286H75.9585V114.148H76.0485C77.012 112.821 78.3387 111.947 80.4458 111.947C84.453 111.947 87.0404 115.471 87.0404 120.109C87.0404 125.23 84.45 128.3 80.4759 128.3C78.4288 128.3 76.7719 127.457 75.8084 125.86L75.8054 125.863ZM82.0697 120.082C82.0697 117.431 81.0162 115.684 79.0291 115.684C76.8619 115.684 75.8054 117.581 75.8054 120.112C75.8054 122.642 77.069 124.419 79.0891 124.419C81.1092 124.419 82.0697 122.762 82.0697 120.082Z" fill="#000662"/>
<path d="M88.394 106.286H93.3647V127.82H88.394V106.286Z" fill="#000662"/>
<path d="M95.4116 106.286H100.322V110.264H95.4116V106.286ZM95.4116 112.401H100.322V127.823H95.4116V112.401Z" fill="#000662"/>
<path d="M101.646 120.142C101.646 115.504 104.84 111.98 109.717 111.98C113.905 111.98 116.585 114.421 117.035 117.885H112.308C112.007 116.498 111.164 115.594 109.777 115.594C107.67 115.594 106.614 117.341 106.614 120.142C106.614 122.942 107.667 124.629 109.777 124.629C111.314 124.629 112.248 123.726 112.458 121.979H117.155C117.035 125.533 114.205 128.303 109.837 128.303C104.867 128.303 101.646 124.779 101.646 120.142Z" fill="#000662"/>
<path d="M122.006 121.045H127.366C127.607 123.212 129.023 124.116 131.584 124.116C133.331 124.116 135.048 123.483 135.048 121.856C135.048 120.139 133.301 119.779 130.35 119.055C126.616 118.182 122.669 117.038 122.669 112.521C122.669 108.003 126.403 105.893 131.224 105.893C136.044 105.893 139.505 108 139.718 112.521H134.507C134.297 110.864 133.03 109.93 131.043 109.93C129.176 109.93 127.943 110.744 127.943 111.947C127.943 113.454 129.6 113.814 132.823 114.538C136.827 115.471 140.444 116.705 140.444 121.315C140.444 125.926 136.59 128.333 131.62 128.333C125.896 128.333 122.132 125.803 122.012 121.045H122.006Z" fill="#000662"/>
<path d="M141.432 120.142C141.432 115.504 144.626 111.98 149.503 111.98C153.691 111.98 156.371 114.421 156.821 117.885H152.094C151.794 116.498 150.95 115.594 149.563 115.594C147.456 115.594 146.4 117.341 146.4 120.142C146.4 122.942 147.453 124.629 149.563 124.629C151.1 124.629 152.034 123.726 152.244 121.979H156.941C156.821 125.533 153.991 128.303 149.623 128.303C144.653 128.303 141.432 124.779 141.432 120.142Z" fill="#000662"/>
<path d="M158.178 106.286H163.088V114.298H163.178C164.292 112.821 165.619 111.947 167.756 111.947C171.129 111.947 173.117 114.358 173.117 117.792V127.82H168.206V118.785C168.206 117.158 167.392 116.045 165.796 116.045C164.199 116.045 163.085 117.401 163.085 119.298V127.823H158.175V106.289L158.178 106.286Z" fill="#000662"/>
<path d="M174.321 120.142C174.321 115.504 177.634 111.98 182.572 111.98C187.51 111.98 190.793 115.504 190.793 120.142C190.793 124.779 187.54 128.303 182.572 128.303C177.604 128.303 174.321 124.779 174.321 120.142ZM185.826 120.142C185.826 117.341 184.682 115.444 182.542 115.444C180.402 115.444 179.288 117.341 179.288 120.142C179.288 122.942 180.402 124.809 182.542 124.809C184.682 124.809 185.826 122.942 185.826 120.142Z" fill="#000662"/>
<path d="M191.427 120.142C191.427 115.504 194.741 111.98 199.678 111.98C204.616 111.98 207.9 115.504 207.9 120.142C207.9 124.779 204.646 128.303 199.678 128.303C194.71 128.303 191.427 124.779 191.427 120.142ZM202.932 120.142C202.932 117.341 201.788 115.444 199.648 115.444C197.508 115.444 196.394 117.341 196.394 120.142C196.394 122.942 197.508 124.809 199.648 124.809C201.788 124.809 202.932 122.942 202.932 120.142Z" fill="#000662"/>
<path d="M209.256 106.286H214.227V127.82H209.256V106.286Z" fill="#000662"/>
<path d="M0 151.839C0 147.201 3.31376 143.677 8.25138 143.677C13.189 143.677 16.4728 147.201 16.4728 151.839C16.4728 156.476 13.219 160 8.25138 160C3.28374 160 0 156.476 0 151.839ZM11.5051 151.839C11.5051 149.038 10.3615 147.141 8.22137 147.141C6.08123 147.141 4.96764 149.038 4.96764 151.839C4.96764 154.639 6.08123 156.506 8.22137 156.506C10.3615 156.506 11.5051 154.639 11.5051 151.839Z" fill="#000662"/>
<path d="M18.6428 147.228H16.6558V144.095H18.6428V142.981C18.6428 141.384 19.0931 140.21 19.9065 139.397C21.2332 138.103 23.7906 137.8 26.441 138.07V141.534C24.574 141.474 23.5504 141.624 23.5504 143.341V144.095H26.441V147.228H23.5504V159.517H18.6398V147.228H18.6428Z" fill="#000662"/>
<path d="M31.2314 153.042V151.145H36.082V152.922C36.082 154.759 36.9555 155.513 38.4323 155.513C39.9991 155.513 40.6625 154.549 40.6625 152.982V137.983H45.9933V153.102C45.9933 155.029 45.51 156.596 44.4565 157.77C43.2528 159.096 41.2928 159.907 38.7654 159.907C33.6747 159.907 31.2374 157.136 31.2374 153.039L31.2314 153.042Z" fill="#000662"/>
<path d="M47.4041 151.839C47.4041 147.201 50.7178 143.677 55.6554 143.677C60.5931 143.677 63.8768 147.201 63.8768 151.839C63.8768 156.476 60.6231 160 55.6554 160C50.6878 160 47.4041 156.476 47.4041 151.839ZM58.9092 151.839C58.9092 149.038 57.7656 147.141 55.6254 147.141C53.4853 147.141 52.3717 149.038 52.3717 151.839C52.3717 154.639 53.4853 156.506 55.6254 156.506C57.7656 156.506 58.9092 154.639 58.9092 151.839Z" fill="#000662"/>
<path d="M65.0835 154.216V144.098H69.9641V153.192C69.9641 154.879 70.7175 155.813 72.2843 155.813C73.9712 155.813 74.9948 154.549 74.9948 152.709V144.095H79.9054V159.517H75.2079V157.62H75.1178C74.0042 159.127 72.6475 159.97 70.5104 159.97C66.9565 159.97 65.0895 157.65 65.0895 154.216H65.0835Z" fill="#000662"/>
<path d="M81.9195 144.098H86.617V146.508H86.707C87.7906 144.671 89.0573 143.857 90.9243 143.857C91.3745 143.857 91.6777 143.887 91.8878 143.977V148.195H91.7677C88.7571 147.772 86.8271 149.248 86.8271 152.592V159.52H81.9165V144.098H81.9195Z" fill="#000662"/>
<path d="M93.1242 144.098H97.8517V146.205H97.9417C99.0853 144.548 100.562 143.644 102.699 143.644C106.073 143.644 108.06 146.055 108.06 149.488V159.517H103.149V150.482C103.149 148.855 102.336 147.741 100.739 147.741C99.1424 147.741 98.0288 149.098 98.0288 150.995V159.52H93.1182V144.098H93.1242Z" fill="#000662"/>
<path d="M109.237 155.209C109.237 151.806 111.948 150.782 115.141 150.362C118.032 150.002 119.055 149.699 119.055 148.645C119.055 147.651 118.422 146.988 116.948 146.988C115.381 146.988 114.598 147.681 114.448 148.975H109.93C110.05 146.115 112.251 143.674 116.918 143.674C119.238 143.674 120.802 144.098 121.919 144.938C123.246 145.902 123.876 147.408 123.876 149.335V157.106C123.876 158.34 123.996 159.034 124.419 159.304V159.514H119.662C119.421 159.184 119.271 158.58 119.148 157.797H119.088C118.185 159.091 116.828 159.904 114.511 159.904C111.437 159.904 109.24 158.247 109.24 155.206L109.237 155.209ZM119.175 154.006V152.169C118.542 152.499 117.639 152.742 116.645 152.982C114.748 153.403 113.965 153.886 113.965 155.059C113.965 156.293 114.868 156.776 116.072 156.776C117.909 156.776 119.175 155.663 119.175 154.006Z" fill="#000662"/>
<path d="M125.95 137.983H130.92V159.517H125.95V137.983Z" fill="#000662"/>
<path d="M132.968 137.983H137.878V141.96H132.968V137.983ZM132.968 144.098H137.878V159.52H132.968V144.098Z" fill="#000662"/>
<path d="M138.961 154.519H143.599C143.779 156.056 144.803 156.809 146.429 156.809C147.906 156.809 148.84 156.266 148.84 155.272C148.84 153.886 146.973 153.736 144.926 153.375C142.245 152.922 139.385 152.202 139.385 148.588C139.385 145.334 142.395 143.647 146.039 143.647C150.407 143.647 152.757 145.544 152.997 148.588H148.479C148.299 147.201 147.366 146.781 146.009 146.781C144.806 146.781 143.872 147.234 143.872 148.198C143.872 149.281 145.619 149.431 147.576 149.795C150.286 150.248 153.48 150.938 153.48 154.885C153.48 158.259 150.5 160.006 146.462 160.006C141.945 160.006 139.115 157.929 138.961 154.525V154.519Z" fill="#000662"/>
<path d="M154.744 144.098H159.442V146.295H159.532C160.495 144.698 161.972 143.644 164.199 143.644C166.216 143.644 167.753 144.698 168.537 146.355H168.597C169.8 144.488 171.457 143.644 173.447 143.644C176.941 143.644 178.688 146.025 178.688 149.488V159.517H173.777V150.362C173.777 148.705 173.084 147.741 171.61 147.741C170.043 147.741 169.17 149.035 169.17 150.875V159.52H164.259V150.365C164.259 148.708 163.566 147.744 162.092 147.744C160.618 147.744 159.652 149.038 159.652 150.878V159.523H154.741V144.101L154.744 144.098Z" fill="#000662"/>
<path d="M215.037 89.9668H170.362C165.646 89.9668 161.825 93.7878 161.825 98.5033C161.825 93.7878 158.004 89.9668 153.289 89.9668H108.613V0H153.289C158.004 0 161.825 3.82103 161.825 8.53654C161.822 3.82103 165.646 0 170.362 0H215.037V24.535H170.362C165.646 24.535 161.825 28.3561 161.825 33.0716C161.825 28.3561 158.004 24.535 153.289 24.535H128.168V32.7144H153.289C158.004 32.7144 161.825 36.5354 161.825 41.2509C161.825 36.5354 165.646 32.7144 170.362 32.7144H215.037V57.2494H170.362C165.646 57.2494 161.825 61.0704 161.825 65.7859C161.825 61.0704 158.004 57.2494 153.289 57.2494H128.168V65.4288H153.289C158.004 65.4288 161.825 69.2498 161.825 73.9653C161.825 69.2498 165.646 65.4288 170.362 65.4288H215.037V89.9638V89.9668Z" fill="#D10014"/>
</g>
<defs>
<clipPath id="clip0_205_1524">
<rect width="215.037" height="160" fill="white"/>
</clipPath>
</defs>
</svg>
