<svg width="24" height="24" viewBox="0 0 24 24" fill="none" xmlns="http://www.w3.org/2000/svg">
<g id="update_FILL0_wght200_GRAD0_opsz48 1">
<path id="Vector" d="M12.332 22.2734C10.957 22.2734 9.66016 22.0078 8.44141 21.4766C7.22266 20.9453 6.16016 20.2318 5.25391 19.3359C4.34766 18.4401 3.62891 17.3776 3.09766 16.1484C2.56641 14.9193 2.30078 13.6172 2.30078 12.2422C2.30078 10.8672 2.56641 9.57552 3.09766 8.36719C3.62891 7.15885 4.34766 6.10156 5.25391 5.19531C6.16016 4.28906 7.22266 3.57552 8.44141 3.05469C9.66016 2.53385 10.957 2.27344 12.332 2.27344C13.7487 2.27344 15.0977 2.57031 16.3789 3.16406C17.6602 3.75781 18.7904 4.5651 19.7695 5.58594V2.42969H20.707V7.17969H15.9883V6.21094H19.0195C18.1237 5.29427 17.1029 4.57031 15.957 4.03906C14.8112 3.50781 13.6029 3.24219 12.332 3.24219C9.8112 3.24219 7.67057 4.10677 5.91016 5.83594C4.14974 7.5651 3.26953 9.67969 3.26953 12.1797C3.26953 14.7214 4.14974 16.8776 5.91016 18.6484C7.67057 20.4193 9.8112 21.3047 12.332 21.3047C14.707 21.3047 16.7435 20.4974 18.4414 18.8828C20.1393 17.2682 21.082 15.2839 21.2695 12.9297H22.2383C22.0924 15.5755 21.0664 17.7943 19.1602 19.5859C17.2539 21.3776 14.9779 22.2734 12.332 22.2734ZM16.4258 16.9922L11.832 12.4609V5.99219H12.7695V12.0547L17.1133 16.3047L16.4258 16.9922Z" fill="#2C3A47" stroke="#2C3A47" stroke-width="0.210558"/>
</g>
</svg>
