<svg width="24" height="24" viewBox="0 0 24 24" fill="none" xmlns="http://www.w3.org/2000/svg">
<g id="update_FILL0_wght200_GRAD0_opsz48 1">
<path id="Vector" d="M12.3311 22.2734C10.9561 22.2734 9.65918 22.0078 8.44043 21.4766C7.22168 20.9453 6.15918 20.2318 5.25293 19.3359C4.34668 18.4401 3.62793 17.3776 3.09668 16.1484C2.56543 14.9193 2.2998 13.6172 2.2998 12.2422C2.2998 10.8672 2.56543 9.57552 3.09668 8.36719C3.62793 7.15885 4.34668 6.10156 5.25293 5.19531C6.15918 4.28906 7.22168 3.57552 8.44043 3.05469C9.65918 2.53385 10.9561 2.27344 12.3311 2.27344C13.7477 2.27344 15.0967 2.57031 16.3779 3.16406C17.6592 3.75781 18.7894 4.5651 19.7686 5.58594V2.42969H20.7061V7.17969H15.9873V6.21094H19.0186C18.1227 5.29427 17.1019 4.57031 15.9561 4.03906C14.8102 3.50781 13.6019 3.24219 12.3311 3.24219C9.81022 3.24219 7.6696 4.10677 5.90918 5.83594C4.14876 7.5651 3.26855 9.67969 3.26855 12.1797C3.26855 14.7214 4.14876 16.8776 5.90918 18.6484C7.6696 20.4193 9.81022 21.3047 12.3311 21.3047C14.7061 21.3047 16.7425 20.4974 18.4404 18.8828C20.1383 17.2682 21.0811 15.2839 21.2686 12.9297H22.2373C22.0915 15.5755 21.0654 17.7943 19.1592 19.5859C17.2529 21.3776 14.9769 22.2734 12.3311 22.2734ZM16.4248 16.9922L11.8311 12.4609V5.99219H12.7686V12.0547L17.1123 16.3047L16.4248 16.9922Z" fill="#FFD700" stroke="#FFD700" stroke-width="0.210558"/>
</g>
</svg>
