<?xml version="1.0" encoding="UTF-8"?><svg id="a" xmlns="http://www.w3.org/2000/svg" viewBox="0 0 16 16"><path d="m15.22,8.53c-.15,1.89-.91,3.48-2.27,4.78-1.36,1.3-3,1.94-4.9,1.94-2.02,0-3.74-.71-5.15-2.13-1.41-1.42-2.12-3.15-2.12-5.19s.71-3.7,2.12-5.09c1.41-1.39,3.13-2.08,5.15-2.08,1.02,0,1.99.21,2.91.64s1.74,1.01,2.46,1.74h-2.43v.78h3.79V.1h-.75v2.53c-.79-.82-1.69-1.47-2.72-1.94C10.27.21,9.19-.03,8.05-.03s-2.14.21-3.12.63c-.98.42-1.83.99-2.56,1.72-.73.73-1.3,1.58-1.73,2.55-.43.97-.64,2.01-.64,3.11s.21,2.15.64,3.13c.43.99,1,1.84,1.73,2.56.73.72,1.58,1.29,2.56,1.72.98.43,2.02.64,3.12.64,2.12,0,3.95-.72,5.48-2.16,1.53-1.44,2.35-3.22,2.47-5.34h-.78Z" style="fill:#fff;"/><polygon points="7.65 2.96 7.65 8.15 11.34 11.79 11.89 11.24 8.4 7.82 8.4 2.96 7.65 2.96" style="fill:#fff;"/></svg>