<svg width="19" height="19" viewBox="0 0 19 19" fill="none" xmlns="http://www.w3.org/2000/svg">
<rect x="0.5" y="0.855469" width="17.5" height="17.5" rx="8.75" fill="#D10014"/>
<path d="M9.25 15.0742C9.85156 15.0742 10.3438 14.582 10.3438 13.9805H8.15625C8.15625 14.582 8.64297 15.0742 9.25 15.0742ZM12.5312 11.793V9.05859C12.5312 7.37969 11.6344 5.97422 10.0703 5.60234V5.23047C10.0703 4.77656 9.70391 4.41016 9.25 4.41016C8.79609 4.41016 8.42969 4.77656 8.42969 5.23047V5.60234C6.86016 5.97422 5.96875 7.37422 5.96875 9.05859V11.793L4.875 12.8867V13.4336H13.625V12.8867L12.5312 11.793Z" fill="white"/>
<rect x="0.5" y="0.855469" width="17.5" height="17.5" rx="8.75" stroke="#D10014" stroke-width="0.4375"/>
</svg>
