<svg width="29" height="30" viewBox="0 0 29 30" fill="none" xmlns="http://www.w3.org/2000/svg">
<g id="SAVE FOR LATER / DEFAULT">
<rect x="0.5" y="1" width="28" height="28" rx="14" stroke="#D10014"/>
<g id="Group 22511">
<path id="Vector" d="M10.2343 21.462C10.2 21.4626 10.166 21.4554 10.1349 21.4409C10.093 21.4209 10.0575 21.3896 10.0324 21.3505C10.0072 21.311 9.99462 21.2647 9.99623 21.2179V8.77715C9.99726 8.71417 10.022 8.6539 10.0655 8.60838C10.1111 8.56485 10.1713 8.5401 10.2343 8.53906H18.7632C18.8264 8.53906 18.8869 8.56415 18.9316 8.6088C18.9762 8.65345 19.0013 8.714 19.0013 8.77715V21.2179C19.0015 21.2628 18.9888 21.3068 18.9648 21.3447C18.9407 21.3826 18.9064 21.4129 18.8657 21.4319C18.8246 21.4522 18.7784 21.4595 18.7331 21.453C18.6883 21.4477 18.6462 21.4287 18.6125 21.3987L14.4897 17.8817L10.388 21.4047C10.3453 21.4417 10.2908 21.462 10.2343 21.462ZM14.4807 17.3422C14.5382 17.3415 14.5939 17.3619 14.6374 17.3995L18.5251 20.7146V9.01523H10.4724V20.7086L14.327 17.3934C14.3701 17.3576 14.4246 17.3384 14.4807 17.3392V17.3422Z" fill="#D10014"/>
<g id="Group 22510">
<path id="Vector_2" d="M10.4727 9.01562H18.5254V20.8476L14.4809 17.439L10.4727 20.8446V9.01562Z" fill="#D10014"/>
</g>
</g>
</g>
</svg>
