<svg width="32" height="32" viewBox="0 0 32 32" fill="none" xmlns="http://www.w3.org/2000/svg">
<rect width="32" height="32"/>
<path d="M15.9982 21.1722C18.119 21.1722 19.8382 19.453 19.8382 17.3322C19.8382 15.2114 18.119 13.4922 15.9982 13.4922C13.8774 13.4922 12.1582 15.2114 12.1582 17.3322C12.1582 19.453 13.8774 21.1722 15.9982 21.1722Z" fill="white"/>
<path d="M12.4 5.33203L10.204 7.73203H6.4C5.08 7.73203 4 8.81203 4 10.132V24.532C4 25.852 5.08 26.932 6.4 26.932H25.6C26.92 26.932 28 25.852 28 24.532V10.132C28 8.81203 26.92 7.73203 25.6 7.73203H21.796L19.6 5.33203H12.4ZM16 23.332C12.688 23.332 10 20.644 10 17.332C10 14.02 12.688 11.332 16 11.332C19.312 11.332 22 14.02 22 17.332C22 20.644 19.312 23.332 16 23.332Z" fill="white"/>
</svg>
