<svg width="24" height="22" viewBox="0 0 24 22" fill="none" xmlns="http://www.w3.org/2000/svg">
<path fill-rule="evenodd" clip-rule="evenodd" d="M23.5 1.13889V21.3682C23.4961 21.4462 23.4721 21.5218 23.4303 21.5874C23.3834 21.656 23.3144 21.706 23.2352 21.7288C23.1556 21.7534 23.0707 21.7534 22.9912 21.7288C22.9153 21.7031 22.8493 21.6536 22.803 21.5874L19.5552 16.7157C19.5172 16.6645 19.4699 16.6213 19.4158 16.5884C19.3594 16.5601 19.2974 16.5456 19.2345 16.546H0.883333C0.782086 16.5435 0.685297 16.5032 0.611515 16.4328C0.540531 16.3562 0.500702 16.2552 0.5 16.15V1.13889C0.502431 1.03617 0.542139 0.937983 0.611515 0.863131C0.685297 0.79275 0.782086 0.752466 0.883333 0.75H23.1236C23.2206 0.753242 23.3128 0.79367 23.3815 0.863131C23.4552 0.935659 23.4978 1.03474 23.5 1.13889ZM19.5 10.9956H4.5V12.7421H19.5V10.9956ZM4.5 7.77075H19.5V9.51722H4.5V7.77075ZM19.5 4.5459H4.5V6.29236H19.5V4.5459Z" fill="black"/>
</svg>
