<svg width="30" height="30" viewBox="0 0 30 30" fill="none" xmlns="http://www.w3.org/2000/svg">
<path d="M7.87598 22.403V9.94886C7.87591 9.91586 7.88262 9.88319 7.89568 9.85288C7.90874 9.82256 7.92788 9.79525 7.95192 9.77263C7.97595 9.75001 8.00437 9.73256 8.03542 9.72136C8.06646 9.71016 8.09948 9.70544 8.13242 9.7075H22.0106C22.0746 9.7075 22.136 9.73293 22.1813 9.7782C22.2266 9.82346 22.252 9.88485 22.252 9.94886V19.193C22.252 19.257 22.2266 19.3184 22.1813 19.3636C22.136 19.4089 22.0746 19.4343 22.0106 19.4343H10.546C10.5063 19.4342 10.4671 19.4437 10.4319 19.4621C10.3967 19.4805 10.3665 19.5072 10.3439 19.5399L8.30741 22.5388C8.2764 22.5761 8.235 22.6033 8.18848 22.617C8.14195 22.6307 8.09241 22.6302 8.04614 22.6157C7.99988 22.6011 7.959 22.5731 7.9287 22.5353C7.89839 22.4974 7.88004 22.4514 7.87598 22.403Z" fill="#D10014"/>
<rect x="1" y="1" width="28" height="28" rx="14" stroke="#D10014" stroke-width="0.75"/>
</svg>