<?xml version="1.0" encoding="UTF-8"?><svg id="Layer_1" xmlns="http://www.w3.org/2000/svg" viewBox="0 0 11.29 10.73"><defs><style>.cls-1{fill:#474748;stroke:#474748;stroke-width:.29px;}</style></defs><path class="cls-1" d="m8.1.15h3.04v6.11h-3.3v-.46c-.64.44-1.19,1-1.61,1.66-.42.65-.71,1.39-.84,2.15-.11.52-.2.86-.5.96-.3.1-.55-.1-.81-.32-1-.79-.69-1.8-.37-2.68.15-.39.25-.8.29-1.21H1.27c-.26.01-.52-.07-.72-.23-.2-.16-.34-.39-.39-.65-.04-.22,0-.45.1-.65.11-.2.28-.35.49-.44-.1-.76-.01-1.52.25-2.24.26-.72.69-1.36,1.25-1.88l.06-.05h.1c1.31-.07,2.62-.07,3.94,0,.51.19,1.01.42,1.49.69V.18l.28-.04Zm-.29,1.28c-.51-.29-1.05-.55-1.6-.76-.15-.04-1.22-.06-3.72,0-.5.49-.88,1.09-1.1,1.75-.22.66-.28,1.37-.17,2.06v.18l-.19.1c-.33.12-.48.34-.43.63.03.14.11.27.23.36.12.09.26.14.41.13h3.17l.04.25c0,.54-.1,1.08-.3,1.59-.29.85-.53,1.59.22,2.23.27.23.36.24.36.24.08-.21.14-.42.17-.64.16-.88.5-1.71,1-2.44.5-.74,1.15-1.36,1.91-1.83V1.42Z"/></svg>