<svg width="20" height="21" viewBox="0 0 20 21" fill="none" xmlns="http://www.w3.org/2000/svg">
<g id="mail-01">
<path id="Icon" d="M1.66663 6.33333L8.47073 11.0962C9.0217 11.4819 9.29719 11.6747 9.59685 11.7494C9.86154 11.8154 10.1384 11.8154 10.4031 11.7494C10.7027 11.6747 10.9782 11.4819 11.5292 11.0962L18.3333 6.33333M5.66663 17.1667H14.3333C15.7334 17.1667 16.4335 17.1667 16.9683 16.8942C17.4387 16.6545 17.8211 16.272 18.0608 15.8016C18.3333 15.2669 18.3333 14.5668 18.3333 13.1667V7.83333C18.3333 6.4332 18.3333 5.73314 18.0608 5.19836C17.8211 4.72795 17.4387 4.3455 16.9683 4.10582C16.4335 3.83333 15.7334 3.83333 14.3333 3.83333H5.66663C4.26649 3.83333 3.56643 3.83333 3.03165 4.10582C2.56124 4.3455 2.17879 4.72795 1.93911 5.19836C1.66663 5.73314 1.66663 6.4332 1.66663 7.83333V13.1667C1.66663 14.5668 1.66663 15.2669 1.93911 15.8016C2.17879 16.272 2.56124 16.6545 3.03165 16.8942C3.56643 17.1667 4.26649 17.1667 5.66663 17.1667Z" stroke="#D10014" stroke-linecap="round" stroke-linejoin="round"/>
</g>
</svg>
