<svg id="Layer_1" data-name="Layer 1" xmlns="http://www.w3.org/2000/svg" viewBox="0 0 28.6 28.6">
  <defs>
    <style>
      .cls-1 {
        fill: #4272b8;
      }

      .cls-1, .cls-2 {
        stroke-width: 0px;
      }

      .cls-2 {
        fill: #fff;
      }
    </style>
  </defs>
  <path class="cls-1" d="m14.3,0h0c7.9,0,14.3,6.4,14.3,14.3h0c0,7.9-6.4,14.3-14.3,14.3h0C6.4,28.6,0,22.2,0,14.3h0C0,6.4,6.4,0,14.3,0Z"/>
  <path class="cls-2" d="m18.85,4.6h-3.1c-1.84,0-3.89.77-3.89,3.44,0,.93,0,1.82,0,2.82h-2.13v3.39h2.2v9.75h4.03v-9.82h2.66l.24-3.33h-2.97s0-1.48,0-1.91c0-1.05,1.1-.99,1.16-.99.52,0,1.54,0,1.8,0v-3.35h0Z"/>
</svg>