<svg width="29" height="28" viewBox="0 0 29 28" fill="none" xmlns="http://www.w3.org/2000/svg">
<path d="M22.6047 14.5394C22.6047 9.86743 19.0176 6.08008 14.5928 6.08008C10.1681 6.08008 6.58105 9.86743 6.58105 14.5394" stroke="black" stroke-width="0.888889"/>
<path d="M8.03008 13.7988H8.03007C6.94341 13.7988 6.0625 14.6797 6.0625 15.7664V20.4691C6.0625 21.5558 6.94341 22.4367 8.03007 22.4367H8.03008C9.11674 22.4367 9.99765 21.5558 9.99765 20.4691V15.7664C9.99765 14.6797 9.11674 13.7988 8.03008 13.7988Z" fill="black" stroke="black" stroke-width="0.888889"/>
<path d="M21.1551 13.7988H21.1551C20.0684 13.7988 19.1875 14.6797 19.1875 15.7664V20.4691C19.1875 21.5558 20.0684 22.4367 21.1551 22.4367H21.1551C22.2417 22.4367 23.1227 21.5558 23.1227 20.4691V15.7664C23.1227 14.6797 22.2417 13.7988 21.1551 13.7988Z" fill="black" stroke="black" stroke-width="0.888889"/>
</svg>
