<svg width="24" height="12" viewBox="0 0 24 12" fill="none" xmlns="http://www.w3.org/2000/svg">
<rect width="24" height="12" rx="6" fill="#D10014"/>
<path d="M9.852 8H8.874V6.152H7.446V8H6.474V3.716H7.446V5.396H8.874V3.716H9.852V8ZM14.2662 5.852C14.2662 6.184 14.2282 6.486 14.1522 6.758C14.0762 7.026 13.9602 7.258 13.8042 7.454C13.6482 7.65 13.4462 7.8 13.1982 7.904C12.9542 8.008 12.6642 8.06 12.3282 8.06C11.9962 8.06 11.7082 8.008 11.4642 7.904C11.2202 7.796 11.0182 7.646 10.8582 7.454C10.7022 7.258 10.5842 7.024 10.5042 6.752C10.4282 6.48 10.3902 6.178 10.3902 5.846C10.3902 5.402 10.4582 5.016 10.5942 4.688C10.7342 4.36 10.9482 4.106 11.2362 3.926C11.5242 3.742 11.8902 3.65 12.3342 3.65C12.7822 3.65 13.1482 3.742 13.4322 3.926C13.7162 4.106 13.9262 4.362 14.0622 4.694C14.1982 5.022 14.2662 5.408 14.2662 5.852ZM11.4102 5.852C11.4102 6.152 11.4402 6.41 11.5002 6.626C11.5642 6.842 11.6642 7.008 11.8002 7.124C11.9362 7.24 12.1122 7.298 12.3282 7.298C12.5482 7.298 12.7242 7.24 12.8562 7.124C12.9922 7.008 13.0902 6.842 13.1502 6.626C13.2142 6.41 13.2462 6.152 13.2462 5.852C13.2462 5.4 13.1742 5.046 13.0302 4.79C12.8902 4.534 12.6582 4.406 12.3342 4.406C12.1142 4.406 11.9362 4.464 11.8002 4.58C11.6642 4.696 11.5642 4.862 11.5002 5.078C11.4402 5.294 11.4102 5.552 11.4102 5.852ZM16.3044 8H15.3324V4.472H14.2944V3.716H17.3424V4.472H16.3044V8Z" fill="white"/>
</svg>
