<svg width="15" height="21" viewBox="0 0 15 21" fill="none" xmlns="http://www.w3.org/2000/svg">
<path id="Vector" d="M7.5 0.627258C3.35953 0.627258 0 3.47052 0 6.97401C0 12.6156 7.5 20.3727 7.5 20.3727C7.5 20.3727 15 12.6156 15 6.97401C15 3.47052 11.6405 0.627258 7.5 0.627258ZM7.5 10.5C6.90666 10.5 6.32664 10.3345 5.83329 10.0246C5.33994 9.71465 4.95542 9.2741 4.72836 8.75867C4.5013 8.24324 4.44189 7.67608 4.55764 7.1289C4.6734 6.58172 4.95912 6.07911 5.37868 5.68461C5.79824 5.29012 6.33279 5.02147 6.91473 4.91263C7.49667 4.80379 8.09987 4.85965 8.64805 5.07315C9.19623 5.28664 9.66476 5.64819 9.99441 6.11207C10.3241 6.57594 10.5 7.12131 10.5 7.67921C10.4991 8.42707 10.1828 9.14407 9.62036 9.6729C9.05794 10.2017 8.29538 10.4992 7.5 10.5Z" fill="#D10014"/>
</svg>
