<svg xmlns="http://www.w3.org/2000/svg" width="26" height="26" viewBox="0 0 26 26" fill="none">
  <path fill-rule="evenodd" clip-rule="evenodd" d="M23.0862 9.06903C23.0862 10.1559 22.7683 11.1655 22.224 12.0029L25.2184 15.1171C25.5939 15.5076 25.5939 16.1408 25.2184 16.5313C24.8429 16.9218 24.2341 16.9218 23.8586 16.5313L20.8642 13.4171C20.059 13.9832 19.0882 14.3138 18.0431 14.3138C15.2579 14.3138 13 11.9657 13 9.06903C13 6.1724 15.2579 3.82422 18.0431 3.82422C20.8283 3.82422 23.0862 6.1724 23.0862 9.06903ZM14.5517 9.06903C14.5517 11.0616 16.1271 12.7001 18.0431 12.7001C19.9591 12.7001 21.5344 11.0616 21.5344 9.06903C21.5344 7.07645 19.9591 5.43801 18.0431 5.43801C16.1271 5.43801 14.5517 7.07645 14.5517 9.06903ZM1.46154 5.82422C0.930496 5.82422 0.5 6.27194 0.5 6.82422C0.5 7.3765 0.930496 7.82422 1.46154 7.82422H9.15385C9.6849 7.82422 10.1154 7.3765 10.1154 6.82422C10.1154 6.27194 9.6849 5.82422 9.15385 5.82422H1.46154ZM1.46154 13.8242C0.930496 13.8242 0.5 14.2719 0.5 14.8242C0.5 15.3765 0.930496 15.8242 1.46154 15.8242H9.15385C9.6849 15.8242 10.1154 15.3765 10.1154 14.8242C10.1154 14.2719 9.6849 13.8242 9.15385 13.8242H1.46154ZM0.5 22.8242C0.5 22.2719 0.930496 21.8242 1.46154 21.8242H18.7692C19.3003 21.8242 19.7308 22.2719 19.7308 22.8242C19.7308 23.3765 19.3003 23.8242 18.7692 23.8242H1.46154C0.930496 23.8242 0.5 23.3765 0.5 22.8242Z" fill="black" stroke="black"/>
</svg>