<svg width="25" height="12" viewBox="0 0 25 12" fill="none" xmlns="http://www.w3.org/2000/svg">
<rect width="25" height="12" rx="6" fill="#D10014"/>
<path d="M10.176 8H8.922L7.308 4.76H7.284C7.288 4.86 7.292 4.962 7.296 5.066C7.3 5.166 7.304 5.268 7.308 5.372C7.316 5.472 7.322 5.574 7.326 5.678C7.33 5.778 7.334 5.88 7.338 5.984V8H6.474V3.716H7.722L9.33 6.926H9.348C9.348 6.826 9.346 6.728 9.342 6.632C9.338 6.532 9.332 6.434 9.324 6.338C9.32 6.238 9.316 6.14 9.312 6.044C9.308 5.944 9.306 5.844 9.306 5.744V3.716H10.176V8ZM13.2383 8H10.8863V3.716H13.2383V4.46H11.8583V5.402H13.1423V6.146H11.8583V7.25H13.2383V8ZM18.9173 3.716L17.9033 8H16.7753L16.3012 5.75C16.2933 5.706 16.2813 5.64 16.2653 5.552C16.2493 5.464 16.2313 5.368 16.2113 5.264C16.1953 5.16 16.1793 5.062 16.1633 4.97C16.1513 4.874 16.1413 4.8 16.1333 4.748C16.1293 4.8 16.1193 4.874 16.1033 4.97C16.0873 5.062 16.0693 5.16 16.0493 5.264C16.0333 5.364 16.0173 5.46 16.0013 5.552C15.9853 5.64 15.9713 5.708 15.9593 5.756L15.4853 8H14.3573L13.3432 3.716H14.2913L14.7653 6.056C14.7773 6.124 14.7933 6.208 14.8133 6.308C14.8332 6.404 14.8533 6.506 14.8733 6.614C14.8933 6.718 14.9113 6.82 14.9273 6.92C14.9433 7.02 14.9553 7.106 14.9633 7.178C14.9753 7.102 14.9893 7.016 15.0053 6.92C15.0253 6.82 15.0433 6.718 15.0593 6.614C15.0793 6.51 15.0973 6.414 15.1133 6.326C15.1333 6.234 15.1493 6.16 15.1612 6.104L15.6833 3.716H16.5833L17.0933 6.116C17.1053 6.168 17.1193 6.24 17.1353 6.332C17.1553 6.42 17.1753 6.516 17.1953 6.62C17.2153 6.724 17.2333 6.826 17.2493 6.926C17.2653 7.022 17.2793 7.106 17.2913 7.178C17.3033 7.078 17.3213 6.96 17.3453 6.824C17.3693 6.684 17.3953 6.544 17.4233 6.404C17.4513 6.264 17.4753 6.148 17.4953 6.056L17.9693 3.716H18.9173Z" fill="white"/>
</svg>
