<svg width="41" height="36" viewBox="0 0 41 36" fill="none" xmlns="http://www.w3.org/2000/svg">
<rect width="41" height="36" fill="#E5E5E5"/>
<g id="Home Page - Eng - Desktop">
<rect width="1920" height="31455" transform="translate(-1181 -9419)" fill="white"/>
<g id="1200px">
<rect width="1200" height="382" transform="translate(-829 -9348)" fill="white"/>
<g id="Home Page Content">
<rect width="1905" height="30990.4" transform="translate(-1181.5 -8954)" fill="white"/>
<g id="Debate Quicks + Poll" clip-path="url(#clip0_115_35629)">
<rect width="1224" height="492" transform="translate(-841 -3)" fill="white"/>
<g id="Entertainment Quicks">
<g id="Header+Content">
<g id="Section Header">
<rect width="379" height="44" transform="translate(-8 -4)" fill="#A20010"/>
<g id="Section Name">
<g id="R.logo" clip-path="url(#clip1_115_35629)">
<g id="R.">
<g id="Group">
<path id="Vector" d="M39.3895 0H0.619814C0.279658 0 0.00390625 0.275754 0.00390625 0.61591V35.3841C0.00390625 35.7242 0.279661 36 0.619817 36H39.3895C39.7297 36 40.0054 35.7242 40.0054 35.3841V0.615908C40.0054 0.275751 39.7297 0 39.3895 0Z" fill="#D10014"/>
<path id="Vector_2" d="M33.1603 31.2711C35.2153 31.0652 36.7155 29.2199 36.5111 27.1495C36.3067 25.0792 34.4751 23.5677 32.4201 23.7736C30.3651 23.9796 28.8649 25.8249 29.0693 27.8952C29.2737 29.9656 31.1053 31.4771 33.1603 31.2711Z" fill="white"/>
<path id="Vector_3" d="M5.17188 5.62891H17.2328C21.1319 5.62891 23.8278 6.65659 25.5407 8.41892C27.0347 9.88754 27.7996 11.8696 27.7996 14.4026V14.4758C27.7996 18.4041 25.7224 21.0103 22.5525 22.3683L28.6379 31.3258H20.4761L15.3381 23.5432H12.2409V31.3258H5.17188V5.62891ZM16.9049 17.9632C19.3099 17.9632 20.6942 16.7883 20.6942 14.9161V14.8428C20.6942 12.8241 19.2365 11.7957 16.8685 11.7957H12.2409V17.9632H16.9049Z" fill="white"/>
</g>
</g>
</g>
</g>
</g>
</g>
</g>
</g>
</g>
</g>
</g>
<defs>
<clipPath id="clip0_115_35629">
<rect width="1224" height="492" fill="white" transform="translate(-841 -3)"/>
</clipPath>
<clipPath id="clip1_115_35629">
<rect width="40.0015" height="36" fill="white"/>
</clipPath>
</defs>
</svg>
