<svg width="53" height="33" viewBox="0 0 53 33" fill="none" xmlns="http://www.w3.org/2000/svg">
<path d="M1.72841 25.4375V15.5675H5.90041C6.95507 15.5675 7.77174 15.8195 8.35041 16.3235C8.92907 16.8182 9.21841 17.5135 9.21841 18.4095C9.21841 18.9975 9.08774 19.5015 8.82641 19.9215C8.56507 20.3415 8.19641 20.6635 7.72041 20.8875C7.24441 21.1022 6.68441 21.2095 6.04041 21.2095L6.26441 20.9855H6.64241C7.02507 20.9855 7.36574 21.0835 7.66441 21.2795C7.97241 21.4755 8.22441 21.7882 8.42041 22.2175L9.83441 25.4375H8.23841L6.83841 22.2035C6.69841 21.8208 6.47907 21.5735 6.18041 21.4615C5.89107 21.3495 5.53174 21.2935 5.10241 21.2935H3.18441V25.4375H1.72841ZM3.18441 20.1875H5.66241C6.36241 20.1875 6.88974 20.0382 7.24441 19.7395C7.60841 19.4408 7.79041 19.0115 7.79041 18.4515C7.79041 17.8822 7.60841 17.4528 7.24441 17.1635C6.88974 16.8742 6.36241 16.7295 5.66241 16.7295H3.18441V20.1875ZM11.4901 25.4375V15.5675H17.9581V16.7295H12.9041V19.8375H17.6361V21.0135H12.9041V24.2615H17.9581V25.4375H11.4901ZM19.7616 25.4375V15.5675H23.9476C25.0023 15.5675 25.8096 15.8242 26.3696 16.3375C26.9389 16.8415 27.2236 17.5415 27.2236 18.4375C27.2236 19.3335 26.9389 20.0382 26.3696 20.5515C25.8096 21.0648 25.0023 21.3215 23.9476 21.3215H21.2176V25.4375H19.7616ZM21.2176 20.1595H23.7936C24.4563 20.1595 24.9556 20.0102 25.2916 19.7115C25.6276 19.4128 25.7956 18.9882 25.7956 18.4375C25.7956 17.8962 25.6276 17.4762 25.2916 17.1775C24.9556 16.8788 24.4563 16.7295 23.7936 16.7295H21.2176V20.1595ZM28.9765 25.4375V15.5675H30.4325V24.1915H35.2765V25.4375H28.9765ZM37.4824 25.4375V20.8035L37.8044 21.7275L33.6464 15.5675H35.3264L38.4204 20.2855H38.0704L41.1644 15.5675H42.7884L38.6444 21.7275L38.9384 20.8035V25.4375H37.4824Z" fill="black"/>
<path d="M51.5788 32.2501H41.5131V31.2417H51.4714V5.48103H26.8574V4.47266H51.5788C51.8172 4.47266 52.0459 4.56756 52.2146 4.7365C52.3832 4.90544 52.478 5.13456 52.478 5.37347V31.3493C52.478 31.5882 52.3832 31.8173 52.2146 31.9862C52.0459 32.1552 51.8172 32.2501 51.5788 32.2501Z" fill="black" stroke="black" stroke-width="0.307042"/>
<path d="M31.0451 9.59113C30.927 9.58938 30.8131 9.54661 30.723 9.47013L25.6901 5.35595C25.6347 5.30743 25.5904 5.24745 25.5602 5.18015C25.5301 5.11284 25.5149 5.0398 25.5157 4.96604C25.5174 4.89269 25.5337 4.82042 25.5636 4.75347C25.5936 4.68651 25.6366 4.62622 25.6901 4.57614L30.7901 0.394735C30.8853 0.301927 31.0129 0.25 31.1457 0.25C31.2786 0.25 31.4062 0.301927 31.5014 0.394735C31.5841 0.500308 31.622 0.634227 31.6069 0.767559C31.5918 0.900892 31.525 1.02293 31.4209 1.10732L26.8041 4.96604L31.3672 8.7172C31.4598 8.81259 31.5116 8.94042 31.5116 9.0735C31.5116 9.20658 31.4598 9.33441 31.3672 9.42979C31.2837 9.52205 31.1688 9.57962 31.0451 9.59113Z" fill="black" stroke="black" stroke-width="0.307042"/>
</svg>
