<svg width="29" height="28" viewBox="0 0 29 28" fill="none" xmlns="http://www.w3.org/2000/svg">
<path fill-rule="evenodd" clip-rule="evenodd" d="M17.3452 18.5798L21.0202 22.2402L22.2598 21.0152L18.5993 17.3548C19.066 16.7909 19.4355 16.1298 19.7077 15.3715C19.9799 14.6132 20.116 13.8159 20.116 12.9798C20.116 10.977 19.4257 9.28537 18.0452 7.90482C16.6646 6.52426 14.9827 5.83398 12.9993 5.83398C10.9966 5.83398 9.3049 6.52893 7.92435 7.91882C6.54379 9.30948 5.85352 10.9965 5.85352 12.9798C5.85352 14.9826 6.54379 16.6743 7.92435 18.0548C9.3049 19.4354 10.9966 20.1257 12.9993 20.1257C13.7966 20.1257 14.5743 19.9895 15.3327 19.7173C16.091 19.4451 16.7618 19.0659 17.3452 18.5798ZM16.8062 16.8007C15.7655 17.8506 14.4966 18.3757 12.9993 18.3757C11.4827 18.3757 10.2044 17.8506 9.16452 16.8007C8.12385 15.7507 7.60352 14.477 7.60352 12.9798C7.60352 11.4826 8.12385 10.209 9.16452 9.15898C10.2044 8.10898 11.4827 7.58398 12.9993 7.58398C14.4966 7.58398 15.7655 8.10898 16.8062 9.15898C17.8461 10.209 18.366 11.4826 18.366 12.9798C18.366 14.477 17.8461 15.7507 16.8062 16.8007Z" fill="black"/>
</svg>
