<svg width="28" height="28" viewBox="0 0 28 28" fill="none" xmlns="http://www.w3.org/2000/svg">
<path fill-rule="evenodd" clip-rule="evenodd" d="M17.3247 18.5779L20.9997 22.2383L22.2393 21.0133L18.5788 17.3529C19.0455 16.789 19.415 16.1279 19.6872 15.3695C19.9594 14.6112 20.0955 13.814 20.0955 12.9779C20.0955 10.9751 19.4052 9.28342 18.0247 7.90286C16.6441 6.52231 14.9622 5.83203 12.9788 5.83203C10.9761 5.83203 9.2844 6.52698 7.90384 7.91686C6.52329 9.30753 5.83301 10.9945 5.83301 12.9779C5.83301 14.9806 6.52329 16.6723 7.90384 18.0529C9.2844 19.4334 10.9761 20.1237 12.9788 20.1237C13.7761 20.1237 14.5538 19.9876 15.3122 19.7154C16.0705 19.4431 16.7413 19.064 17.3247 18.5779ZM16.7857 16.7987C15.745 17.8487 14.4761 18.3737 12.9788 18.3737C11.4622 18.3737 10.1839 17.8487 9.14401 16.7987C8.10334 15.7487 7.58301 14.4751 7.58301 12.9779C7.58301 11.4806 8.10334 10.207 9.14401 9.15703C10.1839 8.10703 11.4622 7.58203 12.9788 7.58203C14.4761 7.58203 15.745 8.10703 16.7857 9.15703C17.8256 10.207 18.3455 11.4806 18.3455 12.9779C18.3455 14.4751 17.8256 15.7487 16.7857 16.7987Z" fill="white"/>
</svg>
