<svg width="30" height="30" viewBox="0 0 30 30" fill="none" xmlns="http://www.w3.org/2000/svg">
<path d="M18.1722 11.5222V7.53516L25.2344 14.5124L18.1722 21.4897V17.403C13.1277 17.403 9.5966 18.9978 7.07438 22.4864C8.08326 17.5027 11.1099 12.5189 18.1722 11.5222Z" fill="black"/>
<path d="M0 3C0 1.34315 1.34315 0 3 0H27C28.6569 0 30 1.34315 30 3H28C28 2.44772 27.5523 2 27 2H3C2.44772 2 2 2.44772 2 3H0ZM30 27C30 28.6569 28.6569 30 27 30H3C1.34315 30 0 28.6569 0 27H2C2 27.5523 2.44772 28 3 28H27C27.5523 28 28 27.5523 28 27H30ZM3 30C1.34315 30 0 28.6569 0 27V3C0 1.34315 1.34315 0 3 0V2C2.44772 2 2 2.44772 2 3V27C2 27.5523 2.44772 28 3 28V30ZM27 0C28.6569 0 30 1.34315 30 3V27C30 28.6569 28.6569 30 27 30V28C27.5523 28 28 27.5523 28 27V3C28 2.44772 27.5523 2 27 2V0Z" fill="black" mask="url(#path-1-outside-1_5526_7210)"/>
</svg>
