<svg width="85" height="28" viewBox="0 0 85 28" fill="none" xmlns="http://www.w3.org/2000/svg">
<rect x="1" y="0.5" width="83" height="27" rx="13.5" stroke="#D10014"/>
<path d="M20.2778 10.7997V7.14258L26.5 13.5426L20.2778 19.9426V16.194C15.8333 16.194 12.7222 17.6569 10.5 20.8569C11.3889 16.2854 14.0556 11.714 20.2778 10.7997Z" fill="#D10014"/>
<path d="M35.636 19.644C34.7293 19.644 33.908 19.532 33.172 19.308C32.436 19.0733 31.796 18.7427 31.252 18.316L31.812 17.004C32.1747 17.2813 32.548 17.5107 32.932 17.692C33.3267 17.8733 33.7427 18.012 34.18 18.108C34.628 18.1933 35.1133 18.236 35.636 18.236C36.532 18.236 37.188 18.076 37.604 17.756C38.0307 17.436 38.244 17.0147 38.244 16.492C38.244 16.044 38.0947 15.6973 37.796 15.452C37.508 15.2067 36.996 15.0093 36.26 14.86L34.516 14.508C33.4813 14.2947 32.708 13.948 32.196 13.468C31.6947 12.9773 31.444 12.3107 31.444 11.468C31.444 10.7853 31.6253 10.188 31.988 9.676C32.3507 9.164 32.852 8.76933 33.492 8.492C34.1427 8.21467 34.9 8.076 35.764 8.076C36.564 8.076 37.3 8.19333 37.972 8.428C38.644 8.652 39.2093 8.988 39.668 9.436L39.124 10.7C38.644 10.284 38.132 9.98 37.588 9.788C37.044 9.58533 36.4253 9.484 35.732 9.484C34.9107 9.484 34.2653 9.65467 33.796 9.996C33.3373 10.3373 33.108 10.8013 33.108 11.388C33.108 11.8573 33.252 12.2253 33.54 12.492C33.8387 12.7587 34.3293 12.9613 35.012 13.1L36.756 13.436C37.8333 13.66 38.628 14.0067 39.14 14.476C39.652 14.9347 39.908 15.5693 39.908 16.38C39.908 17.0307 39.732 17.6013 39.38 18.092C39.0387 18.5827 38.548 18.9667 37.908 19.244C37.268 19.5107 36.5107 19.644 35.636 19.644ZM41.649 19.5V7.724H43.265V13.148H43.041C43.2757 12.54 43.6543 12.0813 44.177 11.772C44.6997 11.452 45.3023 11.292 45.985 11.292C46.945 11.292 47.6597 11.5587 48.129 12.092C48.5983 12.6147 48.833 13.4093 48.833 14.476V19.5H47.217V14.572C47.217 13.8787 47.0783 13.3773 46.801 13.068C46.5343 12.748 46.1077 12.588 45.521 12.588C44.8383 12.588 44.289 12.8013 43.873 13.228C43.4677 13.644 43.265 14.1987 43.265 14.892V19.5H41.649ZM54.0614 19.644C53.3467 19.644 52.7227 19.4787 52.1894 19.148C51.656 18.8173 51.24 18.3373 50.9414 17.708C50.6534 17.0787 50.5094 16.332 50.5094 15.468C50.5094 14.5933 50.6534 13.8467 50.9414 13.228C51.24 12.6093 51.656 12.1347 52.1894 11.804C52.7227 11.4627 53.3467 11.292 54.0614 11.292C54.7654 11.292 55.3787 11.468 55.9014 11.82C56.424 12.172 56.7707 12.652 56.9414 13.26H56.7654L56.9254 11.436H58.4934C58.4614 11.7667 58.4294 12.0973 58.3974 12.428C58.376 12.748 58.3654 13.0627 58.3654 13.372V19.5H56.7494V17.708H56.9254C56.7547 18.3053 56.4027 18.78 55.8694 19.132C55.3467 19.4733 54.744 19.644 54.0614 19.644ZM54.4614 18.38C55.1547 18.38 55.7094 18.1347 56.1254 17.644C56.552 17.1533 56.7654 16.428 56.7654 15.468C56.7654 14.508 56.552 13.788 56.1254 13.308C55.7094 12.8173 55.1547 12.572 54.4614 12.572C53.7574 12.572 53.192 12.8173 52.7654 13.308C52.3494 13.788 52.1414 14.508 52.1414 15.468C52.1414 16.428 52.3494 17.1533 52.7654 17.644C53.1814 18.1347 53.7467 18.38 54.4614 18.38ZM60.5314 19.5V13.436C60.5314 13.1053 60.5207 12.7747 60.4994 12.444C60.4887 12.1027 60.4674 11.7667 60.4354 11.436H62.0034L62.1794 13.516H61.9234C62.03 13.0147 62.2114 12.5987 62.4674 12.268C62.7234 11.9373 63.0327 11.692 63.3954 11.532C63.7687 11.372 64.158 11.292 64.5634 11.292C64.734 11.292 64.878 11.3027 64.9954 11.324C65.1127 11.3347 65.23 11.356 65.3474 11.388L65.3314 12.828C65.15 12.7533 64.99 12.7107 64.8514 12.7C64.7234 12.6787 64.5634 12.668 64.3714 12.668C63.902 12.668 63.502 12.7747 63.1714 12.988C62.8407 13.1907 62.59 13.468 62.4194 13.82C62.2487 14.172 62.1634 14.5507 62.1634 14.956V19.5H60.5314ZM70.0533 19.644C68.7519 19.644 67.7279 19.276 66.9813 18.54C66.2346 17.804 65.8613 16.7853 65.8613 15.484C65.8613 14.6413 66.0213 13.9053 66.3413 13.276C66.6719 12.6467 67.1253 12.1613 67.7013 11.82C68.2879 11.468 68.9653 11.292 69.7333 11.292C70.4906 11.292 71.1253 11.452 71.6373 11.772C72.1493 12.092 72.5386 12.5453 72.8053 13.132C73.0719 13.708 73.2053 14.3907 73.2053 15.18V15.692H67.1253V14.764H72.1013L71.8293 14.972C71.8293 14.172 71.6479 13.5533 71.2853 13.116C70.9333 12.668 70.4213 12.444 69.7493 12.444C69.0026 12.444 68.4266 12.7053 68.0213 13.228C67.6159 13.74 67.4133 14.4493 67.4133 15.356V15.516C67.4133 16.4653 67.6426 17.18 68.1013 17.66C68.5706 18.14 69.2319 18.38 70.0853 18.38C70.5546 18.38 70.9919 18.316 71.3973 18.188C71.8133 18.0493 72.2079 17.8253 72.5813 17.516L73.1093 18.62C72.7359 18.9507 72.2826 19.2067 71.7493 19.388C71.2159 19.5587 70.6506 19.644 70.0533 19.644Z" fill="#D10014"/>
</svg>
