<svg width="29" height="28" viewBox="0 0 29 28" fill="none" xmlns="http://www.w3.org/2000/svg">
<path opacity="0.4" d="M14.0195 28C21.7515 28 28.0195 21.7321 28.0195 14C28.0195 6.26801 21.7515 0 14.0195 0C6.28754 0 0.0195312 6.26801 0.0195312 14C0.0195312 21.7321 6.28754 28 14.0195 28Z" fill="#858585"/>
<path d="M14.0195 6.90234C11.1215 6.90234 8.76953 9.25435 8.76953 12.1523C8.76953 14.9943 10.9955 17.3043 13.9495 17.3883H14.0755H14.1735H14.2015C17.0295 17.2903 19.2555 14.9943 19.2695 12.1523C19.2695 9.25435 16.9175 6.90234 14.0195 6.90234Z" fill="black"/>
<path d="M23.5133 24.2899C21.0213 26.5859 17.6893 27.9999 14.0213 27.9999C10.3533 27.9999 7.0213 26.5859 4.5293 24.2899C4.8653 23.0159 5.7753 21.8539 7.1053 20.9579C10.9273 18.4099 17.1433 18.4099 20.9373 20.9579C22.2813 21.8539 23.1773 23.0159 23.5133 24.2899Z" fill="black"/>
</svg>
