<svg width="18" height="25" viewBox="0 0 18 25" fill="none" xmlns="http://www.w3.org/2000/svg">
<path d="M9 14.7812C8.10417 14.7812 7.35417 14.4592 6.75 13.8151C6.14583 13.171 5.84375 12.3889 5.84375 11.4688V3.625C5.84375 2.75694 6.15043 2.01909 6.76378 1.41147C7.37714 0.803823 8.12193 0.5 8.99816 0.5C9.87439 0.5 10.6198 0.803823 11.2344 1.41147C11.849 2.01909 12.1563 2.75694 12.1563 3.625V11.4688C12.1563 12.3889 11.8542 13.171 11.25 13.8151C10.6458 14.4592 9.89583 14.7812 9 14.7812ZM8.0625 24.25V20C5.85417 19.7708 4 18.8438 2.5 17.2188C1 15.5938 0.25 13.6771 0.25 11.4688H2.125C2.125 13.3646 2.79467 14.9583 4.134 16.25C5.47333 17.5417 7.09312 18.1875 8.99337 18.1875C10.8936 18.1875 12.5156 17.5417 13.8594 16.25C15.2031 14.9583 15.875 13.3646 15.875 11.4688H17.75C17.75 13.6771 17 15.5938 15.5 17.2188C14 18.8438 12.1458 19.7708 9.9375 20V24.25H8.0625ZM9 12.9062C9.375 12.9062 9.68229 12.7656 9.92188 12.4844C10.1615 12.2031 10.2813 11.8646 10.2813 11.4688V3.625C10.2813 3.27083 10.1585 2.97396 9.91288 2.73438C9.66731 2.49479 9.36302 2.375 9 2.375C8.63698 2.375 8.33269 2.49479 8.08712 2.73438C7.84154 2.97396 7.71875 3.27083 7.71875 3.625V11.4688C7.71875 11.8646 7.83854 12.2031 8.07813 12.4844C8.31771 12.7656 8.625 12.9062 9 12.9062Z" fill="black" fill-opacity="0.72"/>
<path d="M9 12.9062C9.375 12.9062 9.68229 12.7656 9.92188 12.4844C10.1615 12.2031 10.2813 11.8646 10.2813 11.4688V3.625C10.2813 3.27083 10.1585 2.97396 9.91288 2.73438C9.66731 2.49479 9.36302 2.375 9 2.375C8.63698 2.375 8.33269 2.49479 8.08712 2.73438C7.84154 2.97396 7.71875 3.27083 7.71875 3.625V11.4688C7.71875 11.8646 7.83854 12.2031 8.07813 12.4844C8.31771 12.7656 8.625 12.9062 9 12.9062Z" fill="black" fill-opacity="0.72"/>
</svg>
