<svg width="36" height="36" viewBox="0 0 36 36" fill="none" xmlns="http://www.w3.org/2000/svg">
<g id="Active State">
<rect x="36" y="36" width="36" height="36" rx="18" transform="rotate(-180 36 36)" fill="black" fill-opacity="0.35"/>
<g id="Group 22511">
<path id="Vector" d="M11.9974 27.4743C11.947 27.4752 11.8972 27.4646 11.8515 27.4434C11.7901 27.414 11.7381 27.3681 11.7013 27.3108C11.6644 27.2528 11.6459 27.1851 11.6483 27.1164V8.87545C11.6498 8.78312 11.6861 8.69475 11.7499 8.628C11.8167 8.56418 11.905 8.52788 11.9974 8.52637H24.5026C24.5952 8.52637 24.684 8.56315 24.7495 8.62861C24.815 8.69408 24.8517 8.78287 24.8517 8.87545V27.1164C24.852 27.1822 24.8334 27.2467 24.7982 27.3023C24.763 27.3579 24.7125 27.4023 24.6529 27.4301C24.5927 27.4599 24.5249 27.4707 24.4585 27.4611C24.3928 27.4533 24.3311 27.4255 24.2817 27.3815L18.2367 22.2247L12.2227 27.3903C12.1601 27.4445 12.0801 27.4743 11.9974 27.4743ZM18.2235 21.4338C18.3078 21.4327 18.3895 21.4626 18.4533 21.5177L24.1536 26.3784V9.22454H12.3464V26.3696L17.9981 21.5089C18.0614 21.4563 18.1413 21.4281 18.2235 21.4293V21.4338Z" fill="white"/>
<g id="Group 22510">
<path id="Vector_2" d="M12.3451 9.22363H24.1522V26.572L18.2221 21.5743L12.3451 26.5675V9.22363Z" fill="white"/>
</g>
</g>
</g>
</svg>
