<svg width="36" height="36" viewBox="0 0 36 36" fill="none" xmlns="http://www.w3.org/2000/svg">
<g id="Bookmark">
<rect x="36" y="36" width="36" height="36" rx="18" transform="rotate(-180 36 36)" fill="black" fill-opacity="0.35"/>
<path id="Vector" d="M11.997 27.815C11.9471 27.8159 11.8977 27.8047 11.853 27.7825C11.79 27.7553 11.7367 27.7096 11.7002 27.6516C11.6637 27.5935 11.6457 27.5257 11.6485 27.4572V9.21575C11.6497 9.12368 11.6868 9.03572 11.7519 8.97061C11.817 8.9055 11.905 8.86839 11.997 8.86719H24.5034C24.5959 8.86719 24.6845 8.90391 24.7499 8.96928C24.8153 9.03465 24.852 9.12331 24.852 9.21575V27.4572C24.8527 27.5235 24.8342 27.5886 24.7988 27.6447C24.7633 27.7008 24.7124 27.7454 24.6522 27.7732C24.592 27.8022 24.5247 27.8128 24.4585 27.8037C24.3924 27.7946 24.3304 27.7662 24.2804 27.7221L18.2386 22.5587L12.2248 27.7314C12.1615 27.786 12.0806 27.8157 11.997 27.815ZM18.2247 21.7733C18.3081 21.7734 18.3888 21.803 18.4524 21.8569L24.1549 26.7136V9.56431H12.3456V26.7089L17.997 21.8476C18.0606 21.7937 18.1413 21.7641 18.2247 21.764V21.7733Z" fill="white" stroke="white" stroke-width="0.5"/>
</g>
</svg>
