<svg width="36" height="36" viewBox="0 0 36 36" fill="none" xmlns="http://www.w3.org/2000/svg">
<g id="Comment">
<rect x="36" y="36.001" width="36" height="36.0009" rx="18" transform="rotate(-180 36 36.001)" fill="black" fill-opacity="0.35"/>
<path id="Vector" d="M26.4704 11.5108V22.0397H14.3321L10.5296 25.4892V11.5108H26.4704ZM26.4704 11H10.5296C10.3891 11 10.2544 11.0538 10.1551 11.1496C10.0558 11.2454 10 11.3753 10 11.5108V25.4892C10.0005 25.5887 10.0308 25.686 10.0871 25.7693C10.1435 25.8526 10.2236 25.9186 10.3178 25.9591C10.385 25.9857 10.4569 25.9996 10.5296 26C10.6611 25.9971 10.7869 25.9473 10.8827 25.8604L14.5298 22.5505H26.4704C26.6109 22.5505 26.7456 22.4967 26.8449 22.4009C26.9442 22.3051 27 22.1752 27 22.0397V11.5108C27 11.3753 26.9442 11.2454 26.8449 11.1496C26.7456 11.0538 26.6109 11 26.4704 11Z" fill="white" stroke="white" stroke-width="0.5"/>
</g>
</svg>
