<svg width="36" height="36" viewBox="0 0 36 36" fill="none" xmlns="http://www.w3.org/2000/svg">
<g id="Like">
<rect x="36" y="36" width="36" height="36" rx="18" transform="rotate(-180 36 36)" fill="black" fill-opacity="0.35"/>
<path id="Vector" d="M13.9561 26.2383H8.37598V25.7436V15.1605H8.87691H14.4337V16.0003C15.6118 15.2044 16.6166 14.1837 17.3888 12.9983C18.1611 11.8129 18.6853 10.4868 18.9304 9.09825C19.1401 8.15498 19.2915 7.5453 19.8391 7.36124C20.3866 7.17719 20.8409 7.5453 21.3302 7.94792C23.1708 9.37434 22.5884 11.2034 22.0059 12.8138C21.7293 13.5188 21.5529 14.2582 21.4817 15.011H26.4909C26.9696 14.9868 27.4408 15.1358 27.8161 15.4302C28.1915 15.7246 28.4451 16.1441 28.5296 16.61C28.6097 17.0112 28.5467 17.4275 28.3514 17.7882C28.156 18.1488 27.8403 18.4316 27.4578 18.5885C27.6384 19.9567 27.484 21.3476 27.0076 22.6446C26.5313 23.9416 25.7469 25.1069 24.7202 26.0427L24.6154 26.1347H24.429C22.0231 26.2596 19.6122 26.2596 17.2063 26.1347C16.2616 25.7889 15.3462 25.3696 14.4687 24.8809V26.1693L13.9561 26.2383ZM9.19144 25.3755H13.5833V24.2252V15.9658H9.19144V25.3755ZM14.4803 23.9261C15.4218 24.4594 16.4032 24.9209 17.416 25.3065C17.6956 25.3755 19.6527 25.41 24.2426 25.3065C25.1608 24.4234 25.8516 23.3359 26.2569 22.1351C26.6623 20.9343 26.7705 19.6551 26.5725 18.4045V18.0824L26.922 17.9098C27.5277 17.6913 27.8073 17.2887 27.7141 16.7595C27.6549 16.5 27.5065 16.2688 27.2941 16.1052C27.0817 15.9416 26.8185 15.8557 26.5492 15.8622H20.7244L20.6429 15.4021C20.6343 14.4164 20.8243 13.4388 21.2021 12.5263C21.7263 10.9848 22.1806 9.65042 20.7943 8.48858C20.305 8.07445 20.142 8.06295 20.1303 8.06295C19.9839 8.43413 19.8785 8.8198 19.8158 9.21329C19.5259 10.801 18.9011 12.3108 17.9819 13.6445C17.0627 14.9783 15.8697 16.1062 14.4803 16.9551V23.9261Z" fill="white" stroke="white" stroke-width="0.5"/>
</g>
</svg>
