<svg width="36" height="36" viewBox="0 0 36 36" fill="none" xmlns="http://www.w3.org/2000/svg">
<g id="Active State">
<rect x="36" y="36" width="36" height="36" rx="18" transform="rotate(-180 36 36)" fill="black" fill-opacity="0.35"/>
<g id="Group 22543">
<path id="Vector" d="M27.9349 18.0089C27.7299 18.387 27.401 18.6829 27.0034 18.8468C27.1943 20.2773 27.0365 21.7327 26.5433 23.089C26.0411 24.4481 25.2201 25.6668 24.1491 26.6428L24.0406 26.74H23.8461C21.3538 26.8675 18.8567 26.8675 16.3644 26.74C16.3095 26.7364 16.2553 26.7251 16.2035 26.7064C15.287 26.3659 14.3967 25.9582 13.5401 25.4868C13.5034 25.4666 13.4729 25.4367 13.4518 25.4005C13.4307 25.3643 13.4198 25.323 13.4203 25.2811L13.3829 16.2507C13.3829 16.2145 13.3917 16.1788 13.4087 16.1469C13.4256 16.1149 13.4502 16.0876 13.4802 16.0674C14.6692 15.2478 15.6859 14.2031 16.4729 12.9924C17.2779 11.7594 17.8251 10.3762 18.0814 8.92609C18.3134 7.93476 18.4593 7.29882 19.0316 7.10429C19.604 6.90977 20.0828 7.29882 20.5916 7.71779C22.5181 9.21413 21.9083 11.122 21.2986 12.8054C21.011 13.5433 20.8272 14.3175 20.7524 15.106H25.9896C26.4898 15.08 26.9826 15.2354 27.3775 15.5437C27.7707 15.8487 28.0371 16.2884 28.1256 16.7781C28.2099 17.198 28.1423 17.6342 27.9349 18.0089Z" fill="white"/>
<path id="Vector_2" d="M12.4288 16.326V25.7193C12.4293 25.7484 12.4239 25.7773 12.413 25.8044C12.4021 25.8314 12.3859 25.8559 12.3653 25.8765C12.3447 25.8971 12.3202 25.9133 12.2932 25.9242C12.2661 25.9351 12.2372 25.9405 12.2081 25.94H8.05949C8.03036 25.9405 8.00144 25.9351 7.97443 25.9242C7.94742 25.9133 7.92289 25.8971 7.90229 25.8765C7.8817 25.8559 7.86546 25.8314 7.85455 25.8044C7.84363 25.7773 7.83827 25.7484 7.83878 25.7193V16.326C7.83828 16.2967 7.84362 16.2676 7.85449 16.2404C7.86536 16.2132 7.88154 16.1884 7.90208 16.1675C7.92263 16.1466 7.94713 16.13 7.97415 16.1187C8.00118 16.1074 8.03019 16.1016 8.05949 16.1016H12.2081C12.2374 16.1016 12.2664 16.1074 12.2934 16.1187C12.3205 16.13 12.345 16.1466 12.3655 16.1675C12.386 16.1884 12.4022 16.2132 12.4131 16.2404C12.424 16.2676 12.4293 16.2967 12.4288 16.326Z" fill="white"/>
</g>
</g>
</svg>
