<svg width="36" height="37" viewBox="0 0 36 37" fill="none" xmlns="http://www.w3.org/2000/svg">
<g id="Share">
<rect x="36" y="36.002" width="36" height="36.0009" rx="18" transform="rotate(-180 36 36.002)" fill="black" fill-opacity="0.35"/>
<path id="Vector" d="M19.9414 10.0604L27.0137 17.192L19.9414 24.3235V20.1522H19.2518C14.7691 20.1522 10.9175 21.5226 7.92442 24.9042C9.82438 19.0687 13.0105 14.908 19.9414 14.0865V10.0604ZM19.9414 9.5293C19.8045 9.53022 19.6735 9.58648 19.5767 9.68589C19.4799 9.7853 19.4251 9.91986 19.4242 10.0604V13.6014C13.3415 14.4867 9.63473 17.9214 7.43822 24.7166C7.4017 24.8318 7.40467 24.9564 7.44663 25.0697C7.4886 25.183 7.56703 25.2782 7.66891 25.3394C7.77079 25.4006 7.88999 25.4241 8.00671 25.4062C8.12344 25.3882 8.23068 25.3298 8.31062 25.2406C11.0381 22.16 14.6174 20.6621 19.2552 20.6621H19.4242V24.3235C19.4243 24.4281 19.4544 24.5303 19.5108 24.6173C19.5672 24.7044 19.6474 24.7724 19.7413 24.8129C19.8352 24.8533 19.9386 24.8644 20.0386 24.8448C20.1386 24.8251 20.2308 24.7756 20.3035 24.7024L27.3757 17.5709C27.4247 17.5214 27.4637 17.4625 27.4902 17.3974C27.5168 17.3324 27.5305 17.2625 27.5305 17.192C27.5305 17.1214 27.5168 17.0516 27.4902 16.9866C27.4637 16.9215 27.4247 16.8625 27.3757 16.8131L20.3035 9.68156C20.2115 9.58767 20.0883 9.53323 19.9587 9.5293H19.9414Z" fill="white" stroke="white" stroke-width="0.5"/>
</g>
</svg>
