<?xml version="1.0" encoding="UTF-8"?><svg id="a" xmlns="http://www.w3.org/2000/svg" xmlns:xlink="http://www.w3.org/1999/xlink" viewBox="0 0 16 16"><defs><mask id="b" x="2.01" y="1.82" width="11.97" height="11.97" maskUnits="userSpaceOnUse"><g id="c"><rect x="2.01" y="1.82" width="11.97" height="11.97" style="fill:#d9d9d8;"/></g></mask></defs><circle cx="8" cy="8" r="8" style="fill:rgb(0 0 0 / 33%);"/><g style="mask:url(#b);"><path d="m9.04,11.77v-.53c.69-.24,1.25-.66,1.67-1.25.42-.59.64-1.26.64-1.99s-.21-1.4-.64-1.99c-.42-.59-.98-1.01-1.67-1.25v-.53c.82.27,1.5.75,2.02,1.43.52.69.79,1.47.79,2.34s-.26,1.65-.79,2.34c-.52.69-1.2,1.17-2.02,1.44Zm-4.88-2.76v-2.01h1.71l1.78-1.79v5.59l-1.78-1.79h-1.71Zm4.88.65v-3.33c.28.18.5.43.64.73.15.3.22.62.22.95s-.07.65-.22.94c-.15.29-.36.53-.64.71Zm-1.88-3.23l-1.07,1.08h-1.42v1h1.42l1.07,1.08v-3.16Z" style="fill:#fff;"/></g></svg>